# xmcd
#
# Track frame offsets:
# 151
# 17674
# 35395
# 53646
# 69697
# 81176
# 98306
# 114007
# 133163
# 153378
# 166872
# 184009
#
# Disc length: 2663 seconds
#
#
# Revision: 0
# Processed by: cddbd v1.5.1PL0 Copyright (c) Steve Scherf et al.
# Submitted via: FreeRIP 2.53 
#
DISCID=880a650c
DTITLE=John McGale - Bridges
DYEAR=2001
DGENRE=Blues
TTITLE0=The Strang And The Unexplained
TTITLE1=A Hard Act To Follow
TTITLE2=Things I Said Today
TTITLE3=Crippled Heart
TTITLE4=Real Life
TTITLE5=Hiding Shadows From The Moon
TTITLE6=Open Your Heart
TTITLE7=Trust
TTITLE8=Losing Game
TTITLE9=Wedding Day
TTITLE10=So Long Sugar Pie
TTITLE11=The Moment
EXTD=BluesfestRadio.com
EXTT0=
EXTT1=
EXTT2=
EXTT3=
EXTT4=
EXTT5=
EXTT6=
EXTT7=
EXTT8=
EXTT9=
EXTT10=
EXTT11=
PLAYORDER=
